# xmcd
#
# Track frame offsets:
#	150
#	13519
#	24465
#	37530
#	47028
#	66997
#	77949
#	97152
#	114571
#	128787
#	140747
#	156508
#	168125
#	179488
#	193241
#	210960
#	225514
#	238919
#	255629
#	266411
#	284884
#	304019
#	317798
#	335930
#
# Disc length: 4704 seconds
#
# Revision: 0
# Processed by: cddbd v1.5.2PL0 Copyright (c) Steve Scherf et al.
# Submitted via: EasyCDDAExtractor 12.0.7.1
#
DISCID=64125e18
DTITLE=Various Artist - Country Hits, Vol. 17
DYEAR=2010
DGENRE=Country
TTITLE0=Tanya Tucker - Let Me Be There
TTITLE1=Waylon Jennings - This Time
TTITLE2=Sara Evans - Cryin' Game
TTITLE3=Charley Pride - Kiss An Angel Good Morning
TTITLE4=Micky And The Motorcars - Long Enough To Leave
TTITLE5=Waylon Jennings - This Time
TTITLE6=Taylor Swift - Hey Stephen
TTITLE7=Tanya Tucker - Some Kind of Trouble
TTITLE8=Micky And The Motorcars - Grow Old
TTITLE9=Waylon Jennings - What Makes A Man Wander
TTITLE10=Tanya Tucker - Oh What It Did To Me
TTITLE11=Charley Pride - Louisiana Man
TTITLE12=Waylon Jennings - Rainy Day Woman
TTITLE13=Micky And The Motorcars - Misunderstood
TTITLE14=Taylor Swift - Love Story
TTITLE15=Tanya Tucker - What's Your Mama's Name Child
TTITLE16=Waylon Jennings - Good Hearted Woman
TTITLE17=Micky And The Motorcars - Twilight
TTITLE18=Charley Pride - Mississippi Cotton Pickin' Delta Town
TTITLE19=Taylor Swift - The Best Day
TTITLE20=Micky And The Motorcars - Seeds
TTITLE21=Waylon Jennings - If You Can Touch Her At All
TTITLE22=Tanya Tucker - When I Die I may not go to Hea
TTITLE23=Micky And The Motorcars - Let's Split Out Of Here
EXTD=
EXTT0=
EXTT1=
EXTT2=
EXTT3=
EXTT4=
EXTT5=
EXTT6=
EXTT7=
EXTT8=
EXTT9=
EXTT10=
EXTT11=
EXTT12=
EXTT13=
EXTT14=
EXTT15=
EXTT16=
EXTT17=
EXTT18=
EXTT19=
EXTT20=
EXTT21=
EXTT22=
EXTT23=
PLAYORDER=
